<?xml version="1.0" encoding="utf-8" ?><svg xmlns="http://www.w3.org/2000/svg" xmlns:xlink="http://www.w3.org/1999/xlink" width="1024" height="1024" viewBox="0 0 1024 1024"><path fill="#83D6F5" d="M148.171 423.754C148.825 422.275 149.499 420.806 150.193 419.345C157.555 403.994 173.247 407.096 178.145 423.324C191.538 427.464 199.222 431.055 211.362 438C214.797 433.961 218.28 431.783 223.785 432.035C228.221 432.232 232.384 434.23 235.314 437.567C240.237 443.231 239.701 450.8 233.959 455.662C233.391 456.326 232.181 457.614 231.849 458.319C224.932 464.207 217.373 461.827 212.197 455.067C208.568 450.328 208.524 446.354 209.226 440.85C197.286 433.671 191.267 430.918 177.667 427.378C175.393 433.446 172.996 435.671 167.333 438.773L167.432 447.381C175.592 453.133 184.728 456.228 193.402 460.687C205.094 466.699 217.763 472.328 229.228 478.418C233.746 480.818 231.063 499.561 227.106 503.107C223.367 506.458 222.394 507.517 217.981 509.977C222.65 516.332 227.931 522.149 226.313 530.675C225.43 535.328 223.305 538.682 219.462 541.497C217.804 542.712 214.628 542.63 213.087 543.641L212.619 544.019C205.974 542.983 202.425 541.627 198.84 535.613C186.361 541.505 178.664 544.814 165.468 548.682L165.49 522.336L162.034 523.11C161.732 531.576 161.688 540.049 161.901 548.518C152.471 545.487 140.052 540.863 131.683 535.884C127.303 543.163 121.633 542.927 114.032 543.823C118.798 547.478 119.865 548.137 124.863 550.828C129.09 553.104 142.132 556.436 144 558.903C142.556 560.259 142.662 560.242 140.735 560.581L140.455 561.04L141.123 561.681C140.758 563.264 141.119 562.536 139.722 563.77C136.037 564.79 129.315 563.528 126.836 560.264C125.829 558.938 126.458 557.968 126.846 556.553L126.864 555.775C123.141 554.151 115.409 548.973 111.682 546.616C109.263 546.984 108.211 547.447 105.938 546.719C103.337 544.594 102.765 541.628 102.791 538.382C102.869 528.42 102.11 520.662 108.492 512.548C98.4497 508.326 94.3705 501.447 95.9735 490.02C96.2761 487.863 96.284 487.225 96.2107 485.083C97.3868 483.413 127.54 465.54 131.476 463.495C142.517 457.757 153.742 452.869 164.574 446.626L164.315 439.145C154.891 439.279 151.656 435.177 148.447 427.129C134.757 432.38 130.428 432.778 116.486 440.915C116.818 448.638 114.225 458.308 105.676 460.497C102.769 461.257 99.6792 460.823 97.0934 459.294C96.6263 457.532 96.5503 456.536 94.7165 456.273L93.3298 457.418C91.9515 456.488 91.326 455.949 90.2455 454.627C87.953 451.841 86.8979 448.24 87.3247 444.658C88.8846 431.472 105.897 425.526 114.763 438.683C128.461 430.231 133.108 428.325 148.171 423.754ZM114.181 490.885C123.662 486.431 133.257 482.072 142.774 477.677C148.978 474.812 157.835 469.639 163.93 467.428C168.933 469.011 175.367 471.918 180.108 474.279C192.658 480.527 204.117 484.65 217.4 488.88L218.692 490.044L214.989 492.752C212.921 494.304 211.299 495.352 209.137 496.707C205.38 505.039 200.742 504.643 199.613 507.229C201.102 511.567 200.454 528.638 200.627 534.752C213.196 545.154 221.179 541.629 224.245 526.02C222.056 518.597 217.657 516.596 215.143 508.931C228.009 500.325 228.753 498.061 227.88 482.642L226.064 481.389C215.184 474.856 203.909 469.417 192.51 463.857C183.275 459.352 173.761 455.466 164.773 450.466C153.387 456.267 141.657 462.948 130.397 469.109C121.406 474.028 109.822 479.831 101.432 485.353C105.517 487.011 110.354 488.826 114.181 490.885ZM114.312 510.64C105.845 520.991 105.14 521.15 106.107 534.809C107.091 536.381 112.184 538.505 114.505 540.031C123.263 540.278 128.515 539.336 128.743 528.958C128.879 522.796 127.774 515.041 128.803 509.068C129.858 505.431 127.91 503.606 124.961 501.74C118.254 497.497 110.785 493.69 103.889 489.792L99.615 487.917C97.6954 502.065 100.96 506.602 114.312 510.64Z"/><path fill="#83D6F5" fill-opacity="0.98039216" d="M226.064 481.389L227.88 482.642C225.239 484.8 221.382 488.155 218.692 490.044L217.4 488.88C220.405 486.866 223.384 483.895 226.064 481.389Z"/><path fill="#243748" d="M103.889 489.792C109.191 491.199 114.249 493.679 119.256 495.891C134.212 502.495 149.233 508.875 163.844 516.236C178.248 510.635 193.445 501.894 208.011 496.03C210.327 495.097 212.636 493.714 214.989 492.752C212.921 494.304 211.299 495.352 209.137 496.707C205.38 505.039 200.742 504.643 199.613 507.229C196.604 509.178 169.61 521.073 165.49 522.336L162.034 523.11C152.833 518.17 138.89 513.295 128.803 509.068C129.858 505.431 127.91 503.606 124.961 501.74C118.254 497.497 110.785 493.69 103.889 489.792Z"/><path fill="#84C8EB" d="M126.846 556.553C130.645 558.594 136.14 559.656 140.455 561.04L141.123 561.681C140.758 563.264 141.119 562.536 139.722 563.77C136.037 564.79 129.315 563.528 126.836 560.264C125.829 558.938 126.458 557.968 126.846 556.553Z"/><path fill="#2882C7" d="M126.864 555.775C134.827 557.854 135.054 559.489 144 558.903C142.556 560.259 142.662 560.242 140.735 560.581L140.455 561.04C136.14 559.656 130.645 558.594 126.846 556.553L126.864 555.775Z"/><path fill="#83D6F5" d="M135.183 454.89C136.509 454.879 136.61 455.17 137.757 455.95L137.892 457.272C137.045 459.631 130.467 462.896 127.709 464.832L126.528 464.977C125.432 463.669 125.2 461.444 124.832 459.693C128.348 457.613 131.399 456.449 135.183 454.89Z"/><path fill="#F6F9F9" d="M351.346 462.766C369.443 462.401 393.583 460.123 407.857 473.335C425.458 489.627 423.902 516.914 408.202 534.095L407.815 534.484C396.682 545.481 384.846 545.592 370.3 545.568L350.543 545.581C350.515 534.34 349.28 468.75 351.346 462.766ZM364.993 532.492C377.852 532.54 388.802 534.023 398.984 525.269C409.073 511.894 410.552 491.839 395.995 480.516C387.939 474.25 374.851 475.488 365.034 475.35C365.39 494.396 365.376 513.447 364.993 532.492Z"/><path fill="#F6F9F9" d="M567.087 462.011C571.738 461.916 576.75 462 581.428 461.997C582.005 489.346 581.447 517.831 581.645 545.367C576.902 545.264 572.157 545.268 567.413 545.379C567.116 525.346 566.907 503.464 567.465 483.499C561.012 494.015 552.551 508.325 545.448 518.118C538.104 528.244 520.765 490.891 515.833 485.697L515.54 486.425L515.582 545.46C510.906 545.412 506.23 545.432 501.556 545.52C501.165 518.037 501.587 489.989 501.605 462.46L515.745 462.414C522.283 470.108 535.609 493.926 541.081 503.241C547.309 492.858 560.106 470.635 567.087 462.011Z"/><path fill="#F6F9F9" d="M850.605 408.703C853.684 408.237 858.362 408.418 861.474 408.55C905.758 410.438 941.219 439.354 952.595 482.274C959.016 506.395 955.608 532.078 943.12 553.691C929.651 576.824 907.54 593.656 881.655 600.477C855.83 607.124 826.703 603.304 803.696 589.677C798.184 586.411 769.803 566.919 775.052 559.239C775.606 558.972 776.673 558.165 777.329 558.495C779.543 559.609 781.263 561.741 782.899 563.631C800.831 584.357 820.786 593.127 847.434 597.066C848.836 597.236 850.245 597.346 851.656 597.396C877.044 598.308 904.371 587.545 922.575 570.16C957.655 536.658 957.852 479.024 924.725 444.01C888.667 405.899 826.88 405.439 790.107 442.743C784.724 447.967 780.49 454.228 775.197 459.534C773.493 461.242 771.882 461.285 770.412 459.235C770.082 455.489 773.331 451.547 775.679 448.737C796.359 423.985 818.333 411.734 850.605 408.703Z"/><path fill="#F6F9F9" d="M617.103 480.164C618.28 480.017 619.463 479.933 620.649 479.913C640.401 479.484 649.669 487.5 649.983 507.836C650.175 520.254 649.671 532.745 649.547 545.164L637.004 545.295C637.04 543.184 637.322 540.837 637.524 538.715C625.044 549.079 608.469 549.346 597.085 536.884C594.868 533.719 593.221 529.033 593.44 525.178C594.671 503.539 621.283 506.49 635.578 507.147C635.915 486.189 615.133 489.664 603.12 498.364C600.649 495.911 597.931 492.813 595.539 490.213C601.382 483.975 608.874 481.444 617.103 480.164ZM623.771 534.868C639.804 530.323 642.424 513.015 620.822 516.177C599.805 518.574 604.658 537.202 623.771 534.868Z"/><path fill="#F6F9F9" d="M792.627 481.571C800.802 481.163 808.191 482.071 815.015 487.002C821.547 491.723 825.246 499.249 826.392 507.09C826.825 510.057 827.675 515.662 825.604 518.044C823.939 519.959 784.594 518.929 778.575 519.044C779.353 521.211 780.102 523.367 781.32 525.335C784.08 529.894 788.641 533.071 793.874 534.08C802.615 535.84 809.237 532.918 816.229 528.356C818.626 527.627 822.978 532.949 824.567 534.576C813.091 546.78 794.95 550.238 780.158 541.798C764.277 532.736 760.887 510.462 769.995 495.468C775.348 486.657 783.157 483.768 792.627 481.571ZM778.914 508.624L795.375 508.794C798.739 508.828 810.284 509.386 812.63 508.005C816.215 502.148 803.034 492.562 796.673 493.213C785.407 494.387 781.799 498.021 778.914 508.624Z"/><path fill="#F6F9F9" d="M295.536 462.755C310.108 462.527 325.318 462.945 340.02 462.909L340.019 475.734C327.878 475.621 315.736 475.576 303.594 475.599C303.87 482.9 303.904 490.209 303.695 497.513C314.19 496.704 325.43 496.964 335.966 497.193L335.912 510.586C326.361 510.497 313.231 510.117 303.933 510.902L303.893 521.929L303.909 532.732C315.325 532.238 329.18 532.536 340.777 532.499C340.648 536.707 340.781 541.573 340.793 545.833C325.922 545.897 303.418 545.048 289.486 545.814C289.131 518.176 289.121 490.535 289.456 462.898L295.536 462.755Z"/><path fill="#F6F9F9" d="M706.962 458.958L720.648 458.938C721.034 476.171 720.976 493.41 720.476 510.64C727.791 502.785 741.486 487.603 749.054 480.68C753.688 480.476 759.848 480.854 764.681 480.93C760.408 486.883 744.291 502.435 738.175 509.221C742.977 515.674 748.16 522.2 753.043 528.674C756.993 533.735 761.45 539.726 765.004 545.024L749.535 545.037C745.716 541.108 733.013 523.491 729.141 518.39C726.274 521.099 723.443 523.846 720.648 526.629C720.6 532.762 720.596 538.896 720.635 545.029L706.969 545.042C706.842 541.16 706.918 537.226 706.894 533.338C706.744 508.5 706.465 483.796 706.962 458.958Z"/><path fill="#F6F9F9" d="M472.46 478.406C476.972 478.567 482.062 478.472 486.622 478.491C486.022 500.229 486.586 523.139 486.288 545.093C482.255 545.379 478.091 546.525 474.719 544.814C473.5 542.899 473.908 542.801 473.76 540.163C463.419 547.886 449.509 548.514 439.365 539.927C430.604 532.511 431.033 519.904 430.58 509.376C430.525 499.108 430.56 489.102 431.327 478.851C435.757 479.013 440.321 478.934 444.764 478.915C445.136 493.144 444.214 507.025 445.375 521.364C446.762 538.488 469.321 537.924 472.189 523.33C473.152 518.427 472.692 510.403 472.648 505.141L472.46 478.406Z"/><path fill="#F6F9F9" d="M845.397 465.259C847.466 465.07 849.878 465.085 851.982 465.044L852.006 465.288C852.607 470.947 852.489 476.299 852.486 481.982C858.79 481.949 865.29 482.011 871.573 481.697L871.622 494.508C865.187 494.45 858.646 494.525 852.202 494.539C852.669 500.367 852.188 508.351 852.041 514.302C851.623 531.241 855.228 537.661 872.842 531.179C873.066 532.194 873.253 533.216 873.4 534.244C874.65 542.953 872.345 545.413 863.555 545.803C833.704 547.13 837.856 518.78 837.906 498.922L837.994 465.513L845.397 465.259Z"/><path fill="#83D6F5" d="M80.3594 496.175C94.8897 503.471 95.2799 519.291 79.555 525.586C83.8836 538.637 86.8454 547.915 93.6825 560.083C106.927 554.197 117.288 562.513 115.27 576.815C114.859 578.006 114.696 578.933 113.768 579.75C97.6085 597.668 75.7924 577.729 91.2419 561.777C84.5562 552.454 79.6119 536.749 75.4806 525.788C60.251 523.55 58.1594 507.853 70.0669 498.382C72.7933 497.363 73.6316 497.118 76.4948 496.628C78.4531 496.952 78.5202 496.787 80.3594 496.175Z"/><path fill="#F6F9F9" d="M693.702 479.186C695.23 478.965 695.148 478.902 696.595 479.377C698.58 482.011 698.016 489.24 697.992 492.835C675.486 496.537 677.412 502.015 677.581 522.445L677.685 545.553C674.475 545.566 667.073 546.128 664.399 544.858C663.711 544.532 663.759 543.999 663.482 543.126C663.004 522.072 663.194 502.221 663.341 481.201C668.028 481.361 671.768 481.31 676.459 481.125L676.506 488.851C681.273 481.985 685.636 480.111 693.702 479.186Z"/><path fill="#F6F9F9" d="M917.279 541.249C918.502 541.52 918.459 541.56 919.534 542.237C921.462 547.138 909.356 559.805 906.066 563.068C885.015 583.947 851.911 587.572 825.013 576.965C816.266 573.515 809.329 568.838 801.913 563.247C798.708 560.451 798.538 558.538 803.129 557.035C804.66 557.54 812.847 564.219 815.048 565.731C831.037 576.52 850.701 580.404 869.591 576.505C893.102 571.863 904.518 560.121 917.279 541.249Z"/><path fill="#F6F9F9" d="M855.063 428.703C875.21 427.412 899.918 437.695 912.719 453.53C914.023 455.143 916.147 457.786 915.9 459.833C913.308 461.157 910.19 457.462 908.236 455.603C894.641 442.667 882.058 436.124 863.381 434.361C841.861 430.96 819.527 442.449 804.783 456.34C803.613 457.442 800.553 458.299 799.307 456.609C799.728 452.063 805.704 448.653 808.949 445.932C822.276 434.76 837.938 430.096 855.063 428.703Z"/><path fill="#83D6F5" d="M165.444 578.113C170.292 579.181 174.268 582.633 176.007 587.281C176.512 588.631 176.815 590.048 176.906 591.486C177.267 597.164 174.306 602.538 169.312 605.265C164.319 607.993 158.197 607.582 153.614 604.21C149.03 600.838 146.815 595.117 147.933 589.538C148.028 589.063 148.146 588.594 148.287 588.131C149.931 582.757 154.504 578.798 160.058 577.941C161.849 577.664 163.675 577.723 165.444 578.113Z"/><path fill="#83D6F5" d="M210.034 576.415C208.797 562.394 219.178 552.275 232.055 560.357C232.922 561.285 233.036 561.639 234.084 562.115C239.767 567.197 239.501 575.792 234.576 581.335C232.018 584.248 228.402 586.018 224.532 586.251C217.928 586.587 213.37 582.572 210.233 577.195L210.034 576.415Z"/><path fill="#83D6F5" d="M250.02 497.232C255.241 497.298 259.998 500.243 262.384 504.888C264.769 509.532 264.393 515.115 261.405 519.397C258.417 523.679 253.307 525.958 248.124 525.322C247.507 525.246 246.896 525.13 246.294 524.973C239.948 523.322 235.578 517.514 235.75 510.959C235.922 504.403 240.591 498.832 247.016 497.517C248.004 497.315 249.012 497.219 250.02 497.232Z"/><path fill="#F6F9F9" d="M904.666 513.206C911.601 512.472 927.037 513.285 934.373 513.51C930.186 520.15 926.992 525.027 921.88 531.061C920.1 533.236 918.548 534.663 916.531 536.58C909.213 529.936 902.756 522.404 897.307 514.158C899.85 513.579 902.082 513.442 904.666 513.206Z"/><path fill="#F6F9F9" d="M917.835 483.786C919.851 483.515 920.76 483.209 922.642 483.786C923.446 487.054 923.007 502.432 922.958 506.93C919.052 507.058 914.811 506.996 910.875 507.016C909.195 507.086 908.927 507.222 907.341 506.616C906.48 504.056 907.115 487.635 907.206 483.772C910.582 483.907 914.538 484.195 917.835 483.786Z"/><path fill="#84C8EB" d="M93.3298 457.418L94.7165 456.273C96.5503 456.536 96.6263 457.532 97.0934 459.294C92.7066 463.627 87.1641 474.603 85.1321 480.576C84.695 481.587 84.2046 482.66 83.8066 483.678C82.3471 488.166 81.4411 491.574 80.3594 496.175C78.5202 496.787 78.4531 496.952 76.4948 496.628C73.6316 497.118 72.7933 497.363 70.0669 498.382C73.6085 495.389 84.5274 469.235 91.2775 461.022C92.2968 459.65 92.869 459.084 93.3298 457.418Z"/><path fill="#243748" d="M70.0669 498.382C73.6085 495.389 84.5274 469.235 91.2775 461.022C89.6482 464.843 87.0047 467.64 85.3555 471.178C81.5933 479.247 78.6938 487.999 76.4948 496.628C73.6316 497.118 72.7933 497.363 70.0669 498.382Z"/><path fill="#84C8EB" d="M212.619 544.019L213.087 543.641C214.623 544.769 214.074 544.071 214.825 545.793C213.38 551.783 196.325 556.97 190.852 560.632C192.947 559.953 197.054 558.33 198.863 559.039C198.521 562.062 193.207 565.629 190.152 565.53C187.232 564.281 186.409 561.271 185.135 558.354C192.606 555.206 207.16 549.27 212.619 544.019Z"/><path fill="#84C8EB" d="M231.849 458.319C232.181 457.614 233.391 456.326 233.959 455.662C242.717 466.076 247.609 484.061 250.02 497.232C249.012 497.219 248.004 497.315 247.016 497.517C243.913 482.302 239.628 471.782 231.849 458.319Z"/><path fill="#84C8EB" d="M113.768 579.75C114.696 578.933 114.859 578.006 115.27 576.815C123.874 580.874 131.575 584.204 141.015 585.809C143.398 586.214 146.326 586.743 148.287 588.131C148.146 588.594 148.028 589.063 147.933 589.538C141.336 592.994 119.738 583.466 113.768 579.75Z"/><path fill="#84C8EB" d="M176.007 587.281C181.68 585.929 187.326 585.211 192.93 583.314C198.237 581.518 204.521 576.575 210.034 576.415L210.233 577.195C204.872 585.31 188.685 588.874 179.613 590.791C178.652 590.994 177.713 591.045 176.906 591.486C176.815 590.048 176.512 588.631 176.007 587.281Z"/><path fill="#84C8EB" d="M246.294 524.973C246.896 525.13 247.507 525.246 248.124 525.322C246.811 534.953 241.239 555.488 234.084 562.115C233.036 561.639 232.922 561.285 232.055 560.357C240.067 546.345 240.361 537.9 246.294 524.973Z"/><path fill="#F6F9F9" d="M912.938 463.282C918.385 464.127 922.065 468.478 925.293 472.48L917.985 472.927C913.386 473.037 908.789 473.175 904.192 473.34C906.938 469.22 909.386 466.631 912.938 463.282Z"/><path fill="#F6F9F9" d="M900.41 480.154C901.133 480.442 902.814 481.102 903.124 481.692C905.625 486.449 904.46 501.874 904.346 507.283C902.673 507.107 902.646 507.228 901.252 506.36C899.594 502.625 900.144 485.058 900.41 480.154Z"/><path fill="#F6F9F9" d="M926.445 481.111C927.903 481.276 928.39 481.173 929.566 482.021C930.971 485.165 930.275 502.688 930.233 507.442C928.844 507.555 928.69 507.479 927.294 507.247C925.459 504.954 926.372 485.69 926.445 481.111Z"/><path fill="#84C8EB" d="M160.058 577.941C162.659 574.989 158.445 560.409 162.905 559.371C166.676 562.383 163.417 575.696 165.444 578.113C163.675 577.723 161.849 577.664 160.058 577.941Z"/></svg>